<?xml version="1.0" encoding="UTF-8" standalone="no"?>
<!-- Created with Inkscape (http://www.inkscape.org/) -->

<svg
   width="70.720757mm"
   height="213.44228mm"
   viewBox="0 0 70.720757 213.44228"
   version="1.1"
   id="svg1"
   xml:space="preserve"
   inkscape:version="1.4.2 (f4327f4, 2025-05-13)"
   sodipodi:docname="pillar.svg"
   xmlns:inkscape="http://www.inkscape.org/namespaces/inkscape"
   xmlns:sodipodi="http://sodipodi.sourceforge.net/DTD/sodipodi-0.dtd"
   xmlns="http://www.w3.org/2000/svg"
   xmlns:svg="http://www.w3.org/2000/svg"><sodipodi:namedview
     id="namedview1"
     pagecolor="#ffffff"
     bordercolor="#000000"
     borderopacity="0.25"
     inkscape:showpageshadow="2"
     inkscape:pageopacity="0.0"
     inkscape:pagecheckerboard="true"
     inkscape:deskcolor="#d1d1d1"
     inkscape:document-units="mm"
     inkscape:zoom="0.71891835"
     inkscape:cx="-15.996253"
     inkscape:cy="319.22958"
     inkscape:window-width="1920"
     inkscape:window-height="1009"
     inkscape:window-x="-8"
     inkscape:window-y="-8"
     inkscape:window-maximized="1"
     inkscape:current-layer="layer1" /><defs
     id="defs1"><linearGradient
       id="swatch11"
       inkscape:swatch="solid"><stop
         style="stop-color:#ffffff;stop-opacity:1;"
         offset="0"
         id="stop11" /></linearGradient><inkscape:path-effect
       effect="tiling"
       id="path-effect10"
       is_visible="true"
       lpeversion="1.3.1"
       unit="px"
       seed="1;1"
       lpesatellites=""
       num_rows="1"
       num_cols="4"
       gapx="19"
       gapy="0"
       offset="0"
       offset_type="false"
       scale="0"
       rotate="0"
       mirrorrowsx="false"
       mirrorrowsy="false"
       mirrorcolsx="false"
       mirrorcolsy="false"
       mirrortrans="false"
       shrink_interp="false"
       split_items="false"
       link_styles="false"
       interpolate_scalex="false"
       interpolate_scaley="true"
       interpolate_rotatex="false"
       interpolate_rotatey="true"
       random_scale="false"
       random_rotate="false"
       random_gap_y="false"
       random_gap_x="false"
       transformorigin="" /><inkscape:path-effect
       effect="mirror_symmetry"
       start_point="105,0"
       end_point="105,297"
       center_point="105,148.5"
       id="path-effect9"
       is_visible="true"
       lpeversion="1.2"
       lpesatellites=""
       mode="vertical"
       discard_orig_path="false"
       fuse_paths="false"
       oposite_fuse="false"
       split_items="false"
       split_open="false"
       link_styles="false" /><inkscape:path-effect
       effect="mirror_symmetry"
       start_point="108.38307,-4.1637813"
       end_point="108.38307,292.83622"
       center_point="108.38307,144.33622"
       id="path-effect7"
       is_visible="true"
       lpeversion="1.2"
       lpesatellites=""
       mode="vertical"
       discard_orig_path="false"
       fuse_paths="false"
       oposite_fuse="false"
       split_items="false"
       split_open="false"
       link_styles="false" /><inkscape:path-effect
       effect="tiling"
       id="path-effect6"
       is_visible="true"
       lpeversion="1.3.1"
       unit="px"
       seed="1;1"
       lpesatellites=""
       num_rows="1"
       num_cols="1"
       gapx="17.1"
       gapy="-11.127811"
       offset="0"
       offset_type="false"
       scale="0"
       rotate="0"
       mirrorrowsx="false"
       mirrorrowsy="false"
       mirrorcolsx="false"
       mirrorcolsy="false"
       mirrortrans="false"
       shrink_interp="false"
       split_items="false"
       link_styles="false"
       interpolate_scalex="false"
       interpolate_scaley="true"
       interpolate_rotatex="false"
       interpolate_rotatey="true"
       random_scale="false"
       random_rotate="false"
       random_gap_y="false"
       random_gap_x="false"
       transformorigin="" /><inkscape:path-effect
       effect="tiling"
       id="path-effect5"
       is_visible="true"
       lpeversion="1.3.1"
       unit="px"
       seed="1;1"
       lpesatellites=""
       num_rows="1"
       num_cols="2"
       gapx="22"
       gapy="-30.601529"
       offset="0"
       offset_type="false"
       scale="0"
       rotate="0"
       mirrorrowsx="false"
       mirrorrowsy="false"
       mirrorcolsx="true"
       mirrorcolsy="true"
       mirrortrans="false"
       shrink_interp="false"
       split_items="false"
       link_styles="false"
       interpolate_scalex="false"
       interpolate_scaley="true"
       interpolate_rotatex="false"
       interpolate_rotatey="true"
       random_scale="false"
       random_rotate="false"
       random_gap_y="false"
       random_gap_x="false"
       transformorigin="" /><inkscape:path-effect
       effect="mirror_symmetry"
       start_point="105,0"
       end_point="105,297"
       center_point="105,148.5"
       id="path-effect4"
       is_visible="true"
       lpeversion="1.2"
       lpesatellites=""
       mode="vertical"
       discard_orig_path="false"
       fuse_paths="false"
       oposite_fuse="false"
       split_items="false"
       split_open="false"
       link_styles="false" /><inkscape:path-effect
       effect="mirror_symmetry"
       start_point="107.57644,-1.472119"
       end_point="107.57644,295.52788"
       center_point="107.57644,147.02788"
       id="path-effect3"
       is_visible="true"
       lpeversion="1.2"
       lpesatellites=""
       mode="vertical"
       discard_orig_path="false"
       fuse_paths="true"
       oposite_fuse="false"
       split_items="false"
       split_open="false"
       link_styles="false" /><inkscape:path-effect
       effect="bspline"
       id="path-effect2"
       is_visible="true"
       lpeversion="1.3"
       weight="33.333333"
       steps="2"
       helper_size="0"
       apply_no_weight="true"
       apply_with_weight="true"
       only_selected="false"
       uniform="false" /><inkscape:path-effect
       effect="bspline"
       id="path-effect1"
       is_visible="true"
       lpeversion="1.3"
       weight="33.333333"
       steps="2"
       helper_size="0"
       apply_no_weight="true"
       apply_with_weight="true"
       only_selected="false"
       uniform="false" /></defs><g
     inkscape:label="Layer 1"
     inkscape:groupmode="layer"
     id="layer1"
     transform="translate(-69.639676,-67.619645)"><g
       id="g3"
       style="fill:#ecca16;fill-opacity:1"
       inkscape:export-filename="pillar.svg"
       inkscape:export-xdpi="96"
       inkscape:export-ydpi="96"><path
         id="path2"
         style="fill:#ecca16;fill-opacity:1;stroke-width:0.264583"
         d="m 77.27679,66.147526 c -2.803465,0 -5.060673,2.257208 -5.060673,5.060673 v 9.38444 c 0,2.803465 2.257208,5.060673 5.060673,5.060673 h 4.228683 c -0.03089,0.796564 0.233326,1.685763 0.719336,2.53628 0.920075,1.61013 2.636298,3.082392 3.556372,4.861202 0.920074,1.778811 1.042912,3.864721 0.720886,5.16816 -0.322026,1.303439 -1.088664,1.823346 -1.027327,2.406056 0.06134,0.58271 0.950211,1.22686 1.410249,25.37881 0.460037,24.15195 0.490479,71.81209 0.214458,95.81069 -0.27602,23.99861 -0.85823,24.335 -1.318266,24.81037 -0.460036,0.47537 -0.796868,1.09021 -1.41025,1.73426 -0.613383,0.64406 -1.503931,1.31794 -1.611271,1.90066 -0.107341,0.58271 0.568898,1.0746 0.798918,2.13269 0.230019,1.05808 0.01441,2.68211 -0.460954,3.63285 -0.47537,0.95074 -1.21136,1.22747 -1.640727,1.9942 -0.285213,0.50931 -0.435156,1.23508 -0.737423,2.06499 h -1.305346 c -2.803465,0 -5.060673,2.25669 -5.060673,5.06015 v 9.38496 c 0,2.80346 2.257208,5.06016 5.060673,5.06016 h 56.324732 c 2.80346,0 5.06015,-2.2567 5.06015,-5.06016 v -9.38496 c 0,-2.80346 -2.25669,-5.06015 -5.06015,-5.06015 h -1.30587 c -0.30226,-0.82991 -0.45272,-1.55568 -0.73794,-2.06499 -0.42936,-0.76673 -1.16484,-1.04346 -1.64021,-1.9942 -0.47537,-0.95074 -0.6889,-2.57477 -0.45888,-3.63285 0.23002,-1.05809 0.90419,-1.54998 0.79685,-2.13269 -0.10734,-0.58272 -0.99841,-1.2566 -1.61179,-1.90066 -0.61338,-0.64405 -0.94969,-1.25889 -1.40973,-1.73426 -0.46003,-0.47537 -1.04276,-0.81176 -1.31879,-24.81037 -0.27602,-23.9986 -0.24506,-71.65874 0.21498,-95.81069 0.46004,-24.15195 1.34892,-24.7961 1.41025,-25.37881 0.0613,-0.58271 -0.7053,-1.102617 -1.02733,-2.406056 -0.32203,-1.303439 -0.19918,-3.389349 0.72089,-5.16816 0.92008,-1.77881 2.63835,-3.251072 3.55843,-4.861202 0.48601,-0.850517 0.74919,-1.739716 0.71779,-2.53628 h 4.22868 c 2.80347,0 5.06068,-2.257208 5.06068,-5.060673 v -9.38444 c 0,-2.803465 -2.25721,-5.060673 -5.06068,-5.060673 z"
         transform="translate(-2.5764405,1.472119)" /></g><path
       id="path15-4"
       style="fill:none;fill-opacity:1;stroke:#b11919;stroke-width:1.32292;stroke-linecap:round;stroke-linejoin:round;stroke-dasharray:none;stroke-opacity:1"
       d="m 81.611268,251.97802 h 46.777462 m -47.95471,8.64746 49.13196,-0.092 M 84.441327,95.506729 H 125.55867 M 80.414497,87.49907 129.54647,87.40706 m -40.643377,17.17653 -0.36803,140.58736 m 5.763143,-140.58736 -0.36803,140.58736 m 5.763143,-140.58736 -0.36803,140.58736 m 5.763141,-140.58736 -0.36803,140.58736 m 0.19117,-140.58736 0.36803,140.58736 m 15.81731,-140.58736 0.36803,140.58736 m -5.76315,-140.58736 0.36803,140.58736 m -5.76314,-140.58736 0.36803,140.58736"
       inkscape:export-filename="pillar.svg"
       inkscape:export-xdpi="96"
       inkscape:export-ydpi="96" /></g></svg>
